<?xml version="1.0" encoding="UTF-8"?>
<!DOCTYPE svg PUBLIC "-//W3C//DTD SVG 1.1//EN" "http://www.w3.org/Graphics/SVG/1.1/DTD/svg11.dtd">
<svg xmlns="http://www.w3.org/2000/svg" xmlns:xlink="http://www.w3.org/1999/xlink" version="1.1" width="928px" height="311px" viewBox="-0.5 -0.5 928 311" style="background-color: rgb(255, 255, 255);"><defs/><g><rect x="441" y="0" width="171" height="40" fill="none" stroke="#858585" stroke-dasharray="3 3" pointer-events="all"/><path d="M 588.94 110.82 Q 688.94 70.82 788.94 110.82" fill="none" stroke="#99ccff" stroke-width="12" stroke-miterlimit="10" pointer-events="stroke"/><path d="M 402.5 68.82 L 402.53 30.06 L 50.88 30.06 L 50.89 110.54" fill="none" stroke="#858585" stroke-width="3" stroke-miterlimit="10" pointer-events="stroke"/><path d="M 50.89 117.29 L 46.39 108.29 L 50.89 110.54 L 55.39 108.29 Z" fill="#858585" stroke="#858585" stroke-width="3" stroke-miterlimit="10" pointer-events="all"/><rect x="364" y="68.82" width="180" height="180" fill="none" stroke="#858585" stroke-width="2" stroke-dasharray="6 6" pointer-events="all"/><rect x="25" y="120" width="90" height="65" fill="none" stroke="none" pointer-events="all"/><path d="M 29.2 171.35 C 27.99 171.26 26.89 170.8 26.12 170.07 C 25.36 169.34 25 168.4 25.13 167.46 L 25.13 123.62 C 25.31 121.81 27.08 120.34 29.38 120.08 L 109.85 120.08 C 112.49 120 114.76 121.56 115 123.62 L 114.91 168.17 C 114.38 170.05 112.3 171.41 109.85 171.49 L 81.64 171.49 L 80.37 175.52 C 80.07 176.45 80.27 177.44 80.92 178.25 C 81.57 179.06 82.61 179.64 83.81 179.84 C 86.54 180.57 89.42 180.88 92.31 180.76 L 97.55 180.76 L 97.55 185 L 38.87 185 L 38.87 180.76 L 45.11 180.76 C 48.37 180.77 51.62 180.34 54.69 179.48 C 57.11 179.03 58.6 177.13 58.04 175.24 L 57.22 171.49 Z M 31.82 166.26 L 108.04 166.26 L 108.04 125.53 L 31.82 125.53 Z" fill="#00bef2" stroke="none" pointer-events="all"/><rect x="15" y="120.64" width="71.78" height="76.36" fill="none" stroke="none" pointer-events="all"/><path d="M 35.52 142.61 C 35.41 136.84 37.33 131.26 40.85 127.13 C 44.37 123 49.19 120.66 54.23 120.64 C 65.48 120.76 74.64 130.54 75.05 142.84 C 75.48 148.5 73.78 154.1 70.35 158.34 C 66.93 162.58 62.08 165.09 56.94 165.27 C 45.56 165.52 36.07 155.48 35.52 142.61 Z M 15 197 C 15.45 186.26 19.4 176.26 25.9 169.42 C 31.05 164.26 38.22 163.95 43.64 168.65 C 46.73 170.96 50.12 172.83 53.71 174.18 C 57.4 175.81 61.45 175.53 64.98 173.42 C 66.92 172.47 68.64 171.11 70.02 169.42 C 71.38 167.77 73.75 167.43 75.51 168.65 C 78.6 170.75 81.37 174.46 83.55 179.41 C 85.65 185.02 86.75 190.97 86.78 196.98 Z" fill="#00188d" stroke="none" pointer-events="all"/><path d="M 209 116.42 C 209 110.36 221.31 105.45 236.5 105.45 C 251.69 105.45 264 110.36 264 116.42 L 264 174.02 C 264 180.08 251.69 184.99 236.5 184.99 C 221.31 184.99 209 180.08 209 174.02 Z" fill="#00bef2" stroke="#ffffff" stroke-width="2" stroke-miterlimit="10" pointer-events="all"/><path d="M 209 116.42 C 209 122.48 221.31 127.39 236.5 127.39 C 251.69 127.39 264 122.48 264 116.42 M 209 134.52 C 209 140.58 221.31 145.5 236.5 145.5 C 251.69 145.5 264 140.58 264 134.52 M 209 155.1 C 209 161.16 221.31 166.07 236.5 166.07 C 251.69 166.07 264 161.16 264 155.1" fill="none" stroke="#ffffff" stroke-width="2" stroke-miterlimit="10" pointer-events="all"/><path d="M 166 118.28 L 196 144.78 L 166 171.28" fill="none" stroke="#0080f0" stroke-width="2" stroke-miterlimit="10" pointer-events="all"/><rect x="122" y="132.5" width="50" height="20" fill="none" stroke="none" pointer-events="all"/><g fill="#00040D" font-family="Helvetica" font-weight="bold" text-anchor="middle" font-size="13px"><text x="146.5" y="147.5">Commit</text></g><rect x="169" y="220" width="135" height="20" fill="none" stroke="none" pointer-events="all"/><g fill="#00040D" font-family="Helvetica" font-weight="bold" text-anchor="middle" font-size="13px"><text x="236" y="235">Source Repository</text></g><rect x="0" y="220" width="135" height="20" fill="none" stroke="none" pointer-events="all"/><g fill="#00040D" font-family="Helvetica" font-weight="bold" text-anchor="middle" font-size="13px"><text x="67" y="235">Developers</text></g><path d="M 323 118.28 L 353 144.78 L 323 171.28" fill="none" stroke="#0080f0" stroke-width="2" stroke-miterlimit="10" pointer-events="all"/><rect x="271" y="132.5" width="59" height="20" fill="none" stroke="none" pointer-events="all"/><g fill="#00040D" font-family="Helvetica" font-weight="bold" text-anchor="middle" font-size="13px"><text x="300" y="139.5">Fetch </text><text x="300" y="155.5">Changes</text></g><path d="M 387.1 135.16 C 387.2 133.12 388.79 131.52 390.72 131.52 L 473.28 131.52 C 475.22 131.52 476.81 133.12 476.91 135.16 L 477 157.18 C 477 158.22 476.61 159.21 475.91 159.93 C 475.21 160.65 474.26 161.04 473.28 161.01 L 390.72 161.01 C 389.76 161.01 388.84 160.61 388.16 159.89 C 387.48 159.17 387.1 158.2 387.1 157.18 Z M 397.97 154.02 C 397.97 152.17 396.55 150.67 394.8 150.67 C 393.05 150.67 391.63 152.17 391.63 154.02 C 391.63 155.87 393.05 157.37 394.8 157.37 C 396.55 157.37 397.97 155.87 397.97 154.02 Z M 452.35 153.74 C 451.8 153.74 451.35 154.21 451.35 154.79 C 451.35 155.37 451.8 155.84 452.35 155.84 L 470.47 155.84 C 471.03 155.84 471.47 155.37 471.47 154.79 C 471.47 154.21 471.03 153.74 470.47 153.74 Z M 452.35 150.1 C 451.8 150.1 451.35 150.57 451.35 151.15 C 451.35 151.73 451.8 152.2 452.35 152.2 L 470.47 152.2 C 471.03 152.2 471.47 151.73 471.47 151.15 C 471.47 150.57 471.03 150.1 470.47 150.1 Z M 452.35 146.36 C 451.8 146.36 451.35 146.84 451.35 147.42 C 451.35 148 451.8 148.47 452.35 148.47 L 470.47 148.47 C 471.03 148.47 471.47 148 471.47 147.42 C 471.47 146.84 471.03 146.36 470.47 146.36 Z M 387 103.24 C 387.1 101.2 388.69 99.6 390.63 99.6 L 473.18 99.6 C 475.12 99.6 476.71 101.2 476.81 103.24 L 476.9 125.26 C 476.9 126.29 476.51 127.28 475.81 128 C 475.11 128.72 474.16 129.12 473.18 129.09 L 390.63 129.09 C 389.66 129.09 388.74 128.69 388.06 127.97 C 387.38 127.25 387 126.28 387 125.26 Z M 397.88 122.1 C 397.88 120.9 397.27 119.8 396.29 119.2 C 395.31 118.6 394.1 118.6 393.12 119.2 C 392.14 119.8 391.53 120.9 391.53 122.1 C 391.53 123.3 392.14 124.4 393.12 125 C 394.1 125.6 395.31 125.6 396.29 125 C 397.27 124.4 397.88 123.3 397.88 122.1 Z M 452.25 121.81 C 451.7 121.81 451.25 122.29 451.25 122.87 C 451.25 123.45 451.7 123.92 452.25 123.92 L 470.38 123.92 C 470.93 123.92 471.37 123.45 471.37 122.87 C 471.37 122.29 470.93 121.81 470.38 121.81 Z M 452.25 118.18 C 451.7 118.18 451.25 118.65 451.25 119.23 C 451.25 119.81 451.7 120.28 452.25 120.28 L 470.38 120.28 C 470.93 120.28 471.37 119.81 471.37 119.23 C 471.37 118.65 470.93 118.18 470.38 118.18 Z M 452.25 114.44 C 451.7 114.44 451.25 114.91 451.25 115.49 C 451.25 116.08 451.7 116.55 452.25 116.55 L 470.38 116.55 C 470.93 116.55 471.37 116.08 471.37 115.49 C 471.37 114.91 470.93 114.44 470.38 114.44 Z M 387.1 166.97 C 387.2 164.93 388.79 163.33 390.72 163.33 L 473.28 163.33 C 475.22 163.33 476.81 164.93 476.91 166.97 L 477 188.99 C 477 190.02 476.61 191.01 475.91 191.73 C 475.21 192.46 474.26 192.85 473.28 192.82 L 390.72 192.82 C 389.76 192.82 388.84 192.42 388.16 191.7 C 387.48 190.98 387.1 190.01 387.1 188.99 Z M 397.97 185.83 C 397.97 183.98 396.55 182.48 394.8 182.48 C 393.05 182.48 391.63 183.98 391.63 185.83 C 391.63 187.68 393.05 189.18 394.8 189.18 C 396.55 189.18 397.97 187.68 397.97 185.83 Z M 452.35 185.54 C 451.8 185.54 451.35 186.02 451.35 186.6 C 451.35 187.18 451.8 187.65 452.35 187.65 L 470.47 187.65 C 471.03 187.65 471.47 187.18 471.47 186.6 C 471.47 186.02 471.03 185.54 470.47 185.54 Z M 452.35 181.91 C 451.8 181.91 451.35 182.38 451.35 182.96 C 451.35 183.54 451.8 184.01 452.35 184.01 L 470.47 184.01 C 471.03 184.01 471.47 183.54 471.47 182.96 C 471.47 182.38 471.03 181.91 470.47 181.91 Z M 452.35 178.17 C 451.8 178.17 451.35 178.64 451.35 179.22 C 451.35 179.81 451.8 180.28 452.35 180.28 L 470.47 180.28 C 471.03 180.28 471.47 179.81 471.47 179.22 C 471.47 178.64 471.03 178.17 470.47 178.17 Z" fill="#00bef2" stroke="none" pointer-events="all"/><path d="M 507 109.82 L 507 125.95" fill="none" stroke="#000000" stroke-miterlimit="10" pointer-events="stroke"/><path d="M 507 131.2 L 503.5 124.2 L 507 125.95 L 510.5 124.2 Z" fill="#000000" stroke="#000000" stroke-miterlimit="10" pointer-events="all"/><rect x="477" y="89.82" width="60" height="20" fill="none" stroke="none" pointer-events="all"/><g fill="#00040D" font-family="Helvetica" font-weight="bold" text-anchor="middle" font-size="13px"><text x="506.5" y="104.82">Build</text></g><rect x="477" y="176.82" width="60" height="20" fill="none" stroke="none" pointer-events="all"/><g fill="#00040D" font-family="Helvetica" font-weight="bold" text-anchor="middle" font-size="13px"><text x="506.5" y="191.82">Result</text></g><path d="M 507 152.32 L 507 170.45" fill="none" stroke="#000000" stroke-miterlimit="10" pointer-events="stroke"/><path d="M 507 175.7 L 503.5 168.7 L 507 170.45 L 510.5 168.7 Z" fill="#000000" stroke="#000000" stroke-miterlimit="10" pointer-events="all"/><rect x="477" y="132.32" width="60" height="20" fill="none" stroke="none" pointer-events="all"/><g fill="#00040D" font-family="Helvetica" font-weight="bold" text-anchor="middle" font-size="13px"><text x="506.5" y="147.32">Test</text></g><rect x="345" y="68.82" width="115" height="20" fill="none" stroke="none" pointer-events="all"/><g fill="#00040D" font-family="Helvetica" font-weight="bold" text-anchor="middle" font-size="13px"><text x="402" y="83.82">CI server</text></g><rect x="142" y="30" width="135" height="20" fill="none" stroke="none" pointer-events="all"/><g fill="#00040D" font-family="Helvetica" font-weight="bold" text-anchor="middle" font-size="13px"><text x="209" y="45">Feedback</text></g><path d="M 818.04 117 C 819.05 112.62 820.72 108.02 822.6 104.4 C 824.98 100.1 827.19 97.06 829.33 94.68 C 821.88 97.26 812.17 103.08 806.17 113.08 C 808.02 114.89 814.21 116.22 818.04 117 Z M 842.34 118.82 L 842.34 92.87 C 837.58 93.14 832.5 96.99 829.37 102.23 C 826.09 106.7 824.17 112.05 822.56 117.59 C 829.07 118.55 836.02 118.78 842.34 118.82 Z M 866.47 117.64 C 865.08 112.91 863.16 107.72 860.56 103.59 C 857.68 98.71 853.28 93.68 846.89 93.24 L 846.89 118.82 C 853.88 118.86 861.37 118.3 866.47 117.64 Z M 870.9 116.92 C 877.26 115.93 880.88 114.6 882.99 113.26 C 880.95 109.98 877.84 106.04 873.92 103 C 868.51 98.37 863.32 95.89 859.75 94.68 C 865.36 100.93 868.92 108.64 870.9 116.92 Z M 873.43 135.27 L 885.34 135.27 L 889.94 133.68 C 889.56 127.73 887.75 122.34 885.21 117.23 C 882.88 118.86 876.76 120.7 871.98 121.44 C 872.81 126.39 873.19 130.9 873.43 135.27 Z M 846.89 135.27 L 868.73 135.27 C 868.54 131.19 868.41 127.1 867.29 122.21 C 861.48 122.73 854.17 123.32 846.89 123.38 Z M 820.16 135.27 L 842.34 135.27 L 842.34 123.47 C 835.19 123.33 827.11 122.86 821.52 122.02 C 820.64 127.22 820.32 131.38 820.16 135.27 Z M 799.13 135.27 L 815.56 135.27 L 816.96 121.3 C 812.87 120.66 806.34 119.33 803.73 116.87 C 800.52 123.69 798.86 129.77 799.13 135.27 Z M 803.92 158.68 C 806.8 156.51 811.54 155.42 817.45 154.29 C 816.36 150.29 815.77 145.32 815.51 139.76 L 798.77 139.76 C 799.23 148.32 801.48 154.09 803.92 158.68 Z M 842.34 152.33 L 842.34 139.76 L 820.08 139.76 C 820.41 144.73 821 150.17 821.9 153.68 C 826.9 152.89 834.12 152.52 842.34 152.33 Z M 846.89 152.37 C 852.13 152.24 860.87 152.72 866.02 153.57 L 866.75 152.58 L 863.99 149.84 C 862.89 148.71 862.17 146.77 862.96 144.26 C 863.68 141.96 866.52 140.73 868.73 140.4 L 868.8 139.76 L 846.89 139.76 Z M 846.89 172.02 C 852.55 168.19 858.21 162.98 862.59 157.67 C 857.09 157.25 851.72 156.9 846.89 156.9 Z M 833.62 176.62 C 837.35 176.23 840.82 175.21 842.34 174.23 L 842.34 156.91 C 835.65 157.04 829.04 157.25 823.12 158.14 C 825.15 165.12 828.4 172.1 833.62 176.62 Z M 826.62 179.96 C 826.79 179.14 827.62 178.39 828.31 177.95 C 824.75 173.91 820.96 167.39 818.41 158.86 C 813.24 159.51 808.56 160.97 806.17 162.74 C 811.4 170.99 819.22 176.78 826.62 179.96 Z M 831.08 182.59 C 838.64 185.09 853.6 185.34 865.95 179.78 C 875.06 175.67 880.81 171.37 885.59 164.96 C 886.5 163.55 887.35 163.45 888.57 164.53 L 893.68 168.58 L 896.41 137.32 L 867.93 146.26 L 873.32 151.35 C 873.93 151.88 873.8 152.43 873.48 152.95 C 868.54 158.97 862.72 165.99 857 171.01 C 847.97 178.68 843.18 180.63 831.08 182.59 Z M 887.73 170.79 C 878.35 181.79 859.99 190.04 844.68 190.04 C 813.81 190.04 792 165.1 792 137.57 C 792 110.06 815.06 85.54 844.45 85.54 C 862.78 85.54 891.91 97.86 896.35 132.01 C 899.16 131.91 902 134.17 901.91 137.68 L 899.08 168.37 C 898.89 170.68 897.69 172.82 895.07 173.66 C 892.59 174.17 890.93 173.55 887.73 170.79 Z" fill="#00bef2" stroke="none" pointer-events="all"/><rect x="842" y="134.85" width="64" height="64" fill="#ffffff" stroke="#ffffff" stroke-dasharray="3 3" pointer-events="all"/><path d="M 842.07 156.97 C 842.15 155.55 843.34 154.44 844.79 154.44 L 906.71 154.44 C 908.16 154.44 909.36 155.55 909.43 156.97 L 909.5 172.3 C 909.5 173.02 909.2 173.71 908.68 174.21 C 908.16 174.71 907.45 174.99 906.71 174.97 L 844.79 174.97 C 843.29 174.97 842.07 173.78 842.07 172.3 Z M 850.23 170.1 C 850.23 169.27 849.78 168.5 849.04 168.08 C 848.31 167.67 847.4 167.67 846.66 168.08 C 845.93 168.5 845.47 169.27 845.47 170.1 C 845.47 170.94 845.93 171.71 846.66 172.12 C 847.4 172.54 848.31 172.54 849.04 172.12 C 849.78 171.71 850.23 170.94 850.23 170.1 Z M 891.01 169.9 C 890.6 169.9 890.26 170.23 890.26 170.64 C 890.26 171.04 890.6 171.37 891.01 171.37 L 904.61 171.37 C 905.02 171.37 905.35 171.04 905.35 170.64 C 905.35 170.23 905.02 169.9 904.61 169.9 Z M 891.01 167.37 C 890.6 167.37 890.26 167.7 890.26 168.1 C 890.26 168.51 890.6 168.84 891.01 168.84 L 904.61 168.84 C 905.02 168.84 905.35 168.51 905.35 168.1 C 905.35 167.7 905.02 167.37 904.61 167.37 Z M 891.01 164.77 C 890.6 164.77 890.26 165.1 890.26 165.5 C 890.26 165.91 890.6 166.24 891.01 166.24 L 904.61 166.24 C 905.02 166.24 905.35 165.91 905.35 165.5 C 905.35 165.1 905.02 164.77 904.61 164.77 Z M 842 134.75 C 842.07 133.33 843.27 132.22 844.72 132.22 L 906.64 132.22 C 908.09 132.22 909.28 133.33 909.36 134.75 L 909.43 150.08 C 909.43 150.8 909.13 151.49 908.61 151.99 C 908.08 152.49 907.37 152.77 906.64 152.75 L 844.72 152.75 C 843.22 152.75 842 151.55 842 150.08 Z M 850.16 147.88 C 850.16 147.05 849.7 146.28 848.97 145.86 C 848.23 145.45 847.32 145.45 846.59 145.86 C 845.85 146.28 845.4 147.05 845.4 147.88 C 845.4 148.72 845.85 149.49 846.59 149.9 C 847.32 150.32 848.23 150.32 848.97 149.9 C 849.7 149.49 850.16 148.72 850.16 147.88 Z M 890.94 147.68 C 890.52 147.68 890.19 148.01 890.19 148.42 C 890.19 148.82 890.52 149.15 890.94 149.15 L 904.53 149.15 C 904.94 149.15 905.28 148.82 905.28 148.42 C 905.28 148.01 904.94 147.68 904.53 147.68 Z M 890.94 145.15 C 890.52 145.15 890.19 145.48 890.19 145.88 C 890.19 146.29 890.52 146.62 890.94 146.62 L 904.53 146.62 C 904.94 146.62 905.28 146.29 905.28 145.88 C 905.28 145.48 904.94 145.15 904.53 145.15 Z M 890.94 142.55 C 890.52 142.55 890.19 142.88 890.19 143.28 C 890.19 143.69 890.52 144.02 890.94 144.02 L 904.53 144.02 C 904.94 144.02 905.28 143.69 905.28 143.28 C 905.28 142.88 904.94 142.55 904.53 142.55 Z M 842.07 179.11 C 842.15 177.69 843.34 176.58 844.79 176.58 L 906.71 176.58 C 908.16 176.58 909.36 177.69 909.43 179.11 L 909.5 194.44 C 909.5 195.16 909.2 195.85 908.68 196.35 C 908.16 196.86 907.45 197.13 906.71 197.11 L 844.79 197.11 C 844.07 197.11 843.38 196.83 842.87 196.33 C 842.36 195.83 842.07 195.15 842.07 194.44 Z M 850.23 192.24 C 850.23 191.41 849.78 190.64 849.04 190.22 C 848.31 189.81 847.4 189.81 846.66 190.22 C 845.93 190.64 845.47 191.41 845.47 192.24 C 845.47 193.08 845.93 193.85 846.66 194.26 C 847.4 194.68 848.31 194.68 849.04 194.26 C 849.78 193.85 850.23 193.08 850.23 192.24 Z M 891.01 192.04 C 890.6 192.04 890.26 192.37 890.26 192.78 C 890.26 193.18 890.6 193.51 891.01 193.51 L 904.61 193.51 C 905.02 193.51 905.35 193.18 905.35 192.78 C 905.35 192.37 905.02 192.04 904.61 192.04 Z M 891.01 189.51 C 890.6 189.51 890.26 189.84 890.26 190.25 C 890.26 190.65 890.6 190.98 891.01 190.98 L 904.61 190.98 C 905.02 190.98 905.35 190.65 905.35 190.25 C 905.35 189.84 905.02 189.51 904.61 189.51 Z M 891.01 186.91 C 890.6 186.91 890.26 187.24 890.26 187.65 C 890.26 188.05 890.6 188.38 891.01 188.38 L 904.61 188.38 C 905.02 188.38 905.35 188.05 905.35 187.65 C 905.35 187.24 905.02 186.91 904.61 186.91 Z" fill="#00bef2" stroke="none" pointer-events="all"/><path d="M 859.5 223.82 L 859.47 300.06 L 67.47 300.06 L 67.5 250.1" fill="none" stroke="#858585" stroke-width="3" stroke-miterlimit="10" pointer-events="stroke"/><path d="M 67.5 243.35 L 71.99 252.36 L 67.5 250.1 L 62.99 252.35 Z" fill="#858585" stroke="#858585" stroke-width="3" stroke-miterlimit="10" pointer-events="all"/><rect x="792" y="203.82" width="135" height="20" fill="none" stroke="none" pointer-events="all"/><g fill="#00040D" font-family="Helvetica" font-weight="bold" text-anchor="middle" font-size="13px"><text x="859" y="218.82">Production</text></g><rect x="712" y="40" width="31.78" height="33.81" fill="none" stroke="none" pointer-events="all"/><path d="M 721.08 49.73 C 721.04 47.17 721.89 44.7 723.45 42.87 C 725 41.05 727.14 40.01 729.37 40 C 734.35 40.05 738.41 44.38 738.59 49.83 C 738.78 52.34 738.02 54.82 736.51 56.69 C 734.99 58.57 732.85 59.68 730.57 59.76 C 725.53 59.87 721.33 55.42 721.08 49.73 Z M 712 73.81 C 712.2 69.06 713.95 64.63 716.83 61.6 C 719.11 59.31 722.28 59.17 724.68 61.26 C 726.05 62.28 727.55 63.11 729.14 63.71 C 730.77 64.43 732.56 64.31 734.13 63.37 C 734.99 62.95 735.75 62.34 736.36 61.6 C 736.96 60.87 738.01 60.72 738.79 61.26 C 740.16 62.19 741.38 63.83 742.35 66.02 C 743.28 68.51 743.77 71.14 743.78 73.8 Z" fill="#00188d" stroke="none" pointer-events="all"/><path d="M 724.64 217.83 C 726.99 212.54 733.11 210 738.57 212.06 C 744.02 214.11 746.88 220.04 745.08 225.53 C 748.22 225.99 750.83 228.15 751.86 231.12 C 752.89 234.1 752.15 237.39 749.96 239.65 C 747.76 241.92 744.48 242.79 741.43 241.9 C 741.83 244.44 740.33 246.9 737.87 247.73 C 735.42 248.56 732.71 247.52 731.46 245.28 C 729.26 248.43 725.38 250 721.58 249.27 C 717.78 248.54 714.78 245.65 713.94 241.9 C 708.75 241.35 704.66 238.5 703.77 234.83 C 702.89 231.17 705.42 227.52 710.05 225.77 C 709 221.99 710.7 217.99 714.18 216.1 C 717.65 214.21 721.98 214.92 724.64 217.83 Z M 735.35 218.79 L 733.4 221.68 L 729.75 221.2 L 730.24 224.33 L 727.32 226.73 L 730 228.66 L 729.75 232.27 L 732.92 231.79 L 735.35 234.68 L 737.54 231.55 L 741.19 232.27 L 740.46 228.42 L 743.62 226.73 L 740.46 224.57 L 741.19 221.2 L 737.54 221.68 Z M 723.18 226.73 L 721.24 229.62 L 717.83 228.9 L 717.83 232.51 L 714.67 234.92 L 717.83 236.37 L 717.35 240.22 L 721.24 239.74 L 723.18 242.87 L 725.13 239.98 L 728.78 240.22 L 728.29 236.85 L 731.7 234.44 L 728.05 232.75 L 728.78 229.14 L 724.89 229.62 Z" fill="#00188d" stroke="none" pointer-events="all"/><ellipse cx="735.59" cy="226.49" rx="2.919423900350331" ry="2.889477486154587" fill="#00188d" stroke="none" pointer-events="all"/><ellipse cx="722.94" cy="234.68" rx="2.919423900350331" ry="2.889477486154587" fill="#00188d" stroke="none" pointer-events="all"/><path d="M 662 144.78 L 676.45 164.53 L 729.44 125.03" fill="none" stroke="#0080f0" stroke-width="8" stroke-miterlimit="10" pointer-events="all"/><path d="M 588.94 176.82 Q 688.94 216.82 788.94 176.82" fill="none" stroke="#99ccff" stroke-width="12" stroke-miterlimit="10" pointer-events="stroke"/><path d="M 562 118.28 L 592 144.78 L 562 171.28" fill="none" stroke="#0080f0" stroke-width="2" stroke-miterlimit="10" pointer-events="all"/><rect x="642" y="50" width="74.11" height="20" fill="none" stroke="none" pointer-events="all"/><g fill="#00040D" font-family="Helvetica" font-weight="bold" text-anchor="middle" font-size="13px"><text x="678.56" y="65">Manual</text></g><rect x="652.89" y="223.82" width="50" height="20" fill="none" stroke="none" pointer-events="all"/><g fill="#00040D" font-family="Helvetica" font-weight="bold" text-anchor="middle" font-size="13px"><text x="677.39" y="238.82">Auto</text></g><rect x="312" y="280" width="135" height="20" fill="none" stroke="none" pointer-events="all"/><g fill="#00040D" font-family="Helvetica" font-weight="bold" text-anchor="middle" font-size="13px"><text x="379" y="295">Feedback</text></g><rect x="621.5" y="10" width="160" height="20" fill="none" stroke="none" pointer-events="all"/><g fill="#00040D" font-family="Helvetica" font-weight="bold" font-style="italic" text-anchor="middle" font-size="16px"><text x="701" y="26.5">Continous Delivery</text></g><rect x="624.5" y="260" width="180" height="20" fill="none" stroke="none" pointer-events="all"/><g fill="#00040D" font-family="Helvetica" font-weight="bold" font-style="italic" text-anchor="middle" font-size="16px"><text x="714" y="276.5">Continous Deployment</text></g><rect x="364" y="220" width="180" height="20" fill="none" stroke="none" pointer-events="all"/><g fill="#00040D" font-family="Helvetica" font-weight="bold" font-style="italic" text-anchor="middle" font-size="16px"><text x="453.5" y="236.5">Continous Integration</text></g><rect x="483" y="10" width="125" height="20" fill="none" stroke="none" pointer-events="all"/><g fill="#00040D" font-family="Helvetica" font-weight="bold" text-anchor="middle" font-size="13px"><text x="545" y="25">Acceptance Test</text></g><path d="M 455.5 21.5 L 461.39 29 L 483 14" fill="none" stroke="#0080f0" stroke-width="5" stroke-miterlimit="10" pointer-events="all"/></g></svg>